#N canvas 475 69 916 766 10;
#X obj 138 392 *~;
#X obj 353 137 abs~;
#X obj 565 138 sig~ 0;
#X obj 493 357 +~;
#X obj 467 190 -~ 0.55;
#X obj 467 211 /~ 0.2;
#X obj 467 232 clip~ 0 1;
#X obj 467 262 *~;
#X obj 402 314 +~;
#N canvas 568 652 135 226 <~ 0;
#X obj 20 -43 -~;
#X obj 20 27 +~ 1e-37;
#X obj 20 6 clip~ -1e-37 0;
#X obj 20 -88 inlet~;
#X obj 64 -87 inlet~;
#X obj 20 -64 max~;
#X obj 20 -19 *~ -1;
#X obj 20 79 outlet~;
#X obj 20 48 *~ 1e+37;
#X connect 0 0 6 0;
#X connect 1 0 8 0;
#X connect 2 0 1 0;
#X connect 3 0 5 0;
#X connect 4 0 0 1;
#X connect 4 0 5 1;
#X connect 5 0 0 0;
#X connect 6 0 2 0;
#X connect 8 0 7 0;
#X restore 138 249 pd <~ 0;
#N canvas 568 652 135 226 <~ 0;
#X obj 20 -43 -~;
#X obj 20 27 +~ 1e-37;
#X obj 20 6 clip~ -1e-37 0;
#X obj 20 -88 inlet~;
#X obj 64 -87 inlet~;
#X obj 20 -64 max~;
#X obj 20 -19 *~ -1;
#X obj 20 79 outlet~;
#X obj 20 48 *~ 1e+37;
#X connect 0 0 6 0;
#X connect 1 0 8 0;
#X connect 2 0 1 0;
#X connect 3 0 5 0;
#X connect 4 0 0 1;
#X connect 4 0 5 1;
#X connect 5 0 0 0;
#X connect 6 0 2 0;
#X connect 8 0 7 0;
#X restore 538 161 pd <~;
#X obj 138 310 *~;
#X obj 205 227 sig~ 1;
#X obj 138 276 lop~ 10;
#X text -38 249 reed stops when overblown >>;
#X obj 138 342 *~;
#X obj 138 368 *~;
#X text -23 352 exp amplitude response >>;
#X text 613 191 << detune frequency on change of direction;
#X obj 79 656 outlet~;
#X obj 403 35 inlet~;
#X text 13 20 Sound model of a rubber duckie toy;
#X text 13 29 ==================================;
#X obj 223 583 hip~ 10;
#X text 16 52 @krighxz 2015;
#X obj 309 316 noise~;
#X obj 513 70 sig~;
#X floatatom 513 45 5 0 0 0 - - -;
#X obj 219 658 dac~;
#X obj 538 189 *~ -100;
#X obj 402 262 *~ 200;
#X obj 402 288 +~ 200;
#X obj 309 344 lop~ 1500;
#X obj 467 289 *~ 200;
#X obj 402 113 lop~ 0.8;
#X obj 313 421 vcf~ 2000 5;
#X obj 189 496 *~ 0.5;
#X obj 417 68 *~ 60;
#X connect 0 0 36 0;
#X connect 1 0 9 0;
#X connect 1 0 4 0;
#X connect 1 0 11 1;
#X connect 1 0 30 0;
#X connect 2 0 10 1;
#X connect 3 0 35 1;
#X connect 4 0 5 0;
#X connect 5 0 6 0;
#X connect 6 0 7 0;
#X connect 6 0 7 1;
#X connect 7 0 33 0;
#X connect 8 0 3 0;
#X connect 9 0 13 0;
#X connect 10 0 29 0;
#X connect 11 0 15 0;
#X connect 11 0 15 1;
#X connect 12 0 9 1;
#X connect 13 0 11 0;
#X connect 15 0 16 1;
#X connect 15 0 16 0;
#X connect 16 0 0 0;
#X connect 20 0 37 0;
#X connect 23 0 19 0;
#X connect 23 0 28 1;
#X connect 23 0 28 0;
#X connect 25 0 32 0;
#X connect 26 0 34 0;
#X connect 27 0 26 0;
#X connect 29 0 3 1;
#X connect 30 0 31 0;
#X connect 31 0 8 0;
#X connect 32 0 35 0;
#X connect 33 0 8 1;
#X connect 34 0 1 0;
#X connect 34 0 10 0;
#X connect 35 0 36 0;
#X connect 36 0 23 0;
#X connect 37 0 34 0;
