#N canvas 630 106 408 423 10;
#X obj 140 89 sig~;
#X obj 35 61 noise~;
#X obj 61 246 vcf~ 285 10;
#X obj 69 331 dac~;
#X floatatom 140 63 5 0 0 0 - - -;
#X obj 90 192 abs~;
#X obj 75 93 *~;
#X obj 221 58 noise~;
#X obj 247 243 vcf~ 285 10;
#X obj 276 189 abs~;
#X obj 261 90 *~;
#X obj 303 46 inlet~;
#X obj 255 329 outlet~;
#X obj 90 219 *~ 100;
#X obj 276 217 *~ 100;
#X text 98 278 <- to test;
#X obj 302 72 *~ 20;
#X connect 0 0 5 0;
#X connect 0 0 6 1;
#X connect 1 0 2 0;
#X connect 1 0 6 0;
#X connect 2 0 3 0;
#X connect 2 0 3 1;
#X connect 4 0 0 0;
#X connect 5 0 13 0;
#X connect 6 0 5 0;
#X connect 7 0 8 0;
#X connect 7 0 10 0;
#X connect 8 0 12 0;
#X connect 9 0 14 0;
#X connect 10 0 9 0;
#X connect 11 0 16 0;
#X connect 13 0 2 1;
#X connect 14 0 8 1;
#X connect 16 0 10 1;
#X connect 16 0 9 0;
